{"title":"Inside Out 2015 HDTURBO TS XviD AC3-SUPERCHiVED","uid":12165261,"size":1054918967,"categoryP":"video","categoryS":"movies","magnet":"?xt=urn:btih:5bd4d1b24fa90d09d6f8cddc91fa8ab581ccf77f&amp;dn=Inside+Out+2015+HDTURBO+TS+XviD+AC3-SUPERCHiVED&amp;tr=udp%3A%2F%2Ftracker.openbittorrent.com%3A80&amp;tr=udp%3A%2F%2Fopen.demonii.com%3A1337&amp;tr=udp%3A%2F%2Ftracker.coppersurfer.tk%3A6969&amp;tr=udp%3A%2F%2Fexodus.desync.com%3A6969","seeders":28,"leechers":8,"uploader":"makintos13","files":3,"time":1438013647,"description":"screens:\n &lt;a href=&quot;\nhttp://imgmak.com/Ei&quot; rel=&quot;nofollow&quot; target=&quot;_NEW&quot;&gt;\nhttp://imgmak.com/Ei&lt;/a&gt;\n &lt;a href=&quot;\nhttp://imgmak.com/Ej&quot; rel=&quot;nofollow&quot; target=&quot;_NEW&quot;&gt;\nhttp://imgmak.com/Ej&lt;/a&gt;\n &lt;a href=&quot;\nhttp://imgmak.com/Ew&quot; rel=&quot;nofollow&quot; target=&quot;_NEW&quot;&gt;\nhttp://imgmak.com/Ew&lt;/a&gt;\n &lt;a href=&quot;\nhttp://imgmak.com/EJ&quot; rel=&quot;nofollow&quot; target=&quot;_NEW&quot;&gt;\nhttp://imgmak.com/EJ&lt;/a&gt;\n &lt;a href=&quot;\nhttp://imgmak.com/EW&quot; rel=&quot;nofollow&quot; target=&quot;_NEW&quot;&gt;\nhttp://imgmak.com/EW&lt;/a&gt;\n &lt;a href=&quot;\nhttp://imgmak.com/Ed&quot; rel=&quot;nofollow&quot; target=&quot;_NEW&quot;&gt;\nhttp://imgmak.com/Ed&lt;/a&gt;\n &lt;a href=&quot;\nhttp://imgmak.com/Es&quot; rel=&quot;nofollow&quot; target=&quot;_NEW&quot;&gt;\nhttp://imgmak.com/Es&lt;/a&gt;\n &lt;a href=&quot;\nhttp://imgmak.com/E4&quot; rel=&quot;nofollow&quot; target=&quot;_NEW&quot;&gt;\nhttp://imgmak.com/E4&lt;/a&gt;\n\n::::;\n\nInside.Out.2015.HDTURBO.TS.XviD.AC3-SUPERCHiVED\n\nSource: Video-Pelis24 Audio-CHiVE\n\ntook your audio and muxed it to my vid which i filtered with no filters and i just named it like this for HITS !!!!!\n &lt;a href=&quot;\nhttp://www.imdb.com/title/tt2096673/&quot; rel=&quot;nofollow&quot; target=&quot;_NEW&quot;&gt;\nhttp://www.imdb.com/title/tt2096673/&lt;/a&gt;\n\nGeneral\nComplete name: Inside.Out.2015.HDTURBO.TS.XviD.AC3-SUPERCHiVED.avi\nFormat: AVI\nFormat/Info: Audio Video Interleave\nFile size: 979 MiB\nDuration: 1h 28mn\nOverall bit rate: 1 540 Kbps\n\nVideo\nID: 0\nFormat: MPEG-4 Visual\nFormat profile: Advanced Simple@L5\nFormat settings, BVOP: 2\nFormat settings, QPel: No\nFormat settings, GMC: No warppoints\nFormat settings, Matrix: Default (H.263)\nMuxing mode: Packed bitstream\nCodec ID: XVID\nCodec ID/Hint: XviD\nDuration: 1h 28mn\nBit rate: 1 339 Kbps\nWidth: 720 pixels\nHeight: 400 pixels\nDisplay aspect ratio: 16:9\nFrame rate: 29.970 fps\nColor space: YUV\nChroma subsampling: 4:2:0\nBit depth: 8 bits\nScan type: Progressive\nCompression mode: Lossy\nBits/(Pixel*Frame): 0.155\nStream size: 852 MiB (87%)\nWriting library: XviD 64\n\nAudio\nID: 1\nFormat: AC-3\nFormat/Info: Audio Coding 3\nMode extension: CM (complete main)\nFormat settings, Endianness: Big\nCodec ID: 2000\nDuration: 1h 28mn\nBit rate mode: Constant\nBit rate: 192 Kbps\nChannel(s): 2 channels\nChannel positions: Front: L R\nSampling rate: 44.1 KHz\nCompression mode: Lossy\nStream size: 122 MiB (12%)\nAlignment: Aligned on interleaves\nInterleave, duration: 70 ms (2.09 video frames)\nInterleave, preload duration: 208 ms\nTitle: Inside.avi_track_1","torrent":{"xt":"urn:btih:5bd4d1b24fa90d09d6f8cddc91fa8ab581ccf77f","amp;dn":"Inside+Out+2015+HDTURBO+TS+XviD+AC3-SUPERCHiVED","amp;tr":["udp%3A%2F%2Ftracker.openbittorrent.com%3A80","udp%3A%2F%2Fopen.demonii.com%3A1337","udp%3A%2F%2Ftracker.coppersurfer.tk%3A6969","udp%3A%2F%2Fexodus.desync.com%3A6969"],"infoHash":"5bd4d1b24fa90d09d6f8cddc91fa8ab581ccf77f","infoHashBuffer":{"type":"Buffer","data":[91,212,209,178,79,169,13,9,214,248,205,220,145,250,138,181,129,204,247,127]},"announce":[],"urlList":[]}}